<svg xmlns="http://www.w3.org/2000/svg" height="11.753" width="11.512"  fill="#f27025" xmlns:v="https://vecta.io/nano"><path d="M.009 1.124L.004.208C-.004.05.038-.004.208 0a10.73 10.73 0 0 1 2.931.45c3.077.924 5.379 2.823 6.932 5.62.937 1.69 1.395 3.518 1.44 5.454.004.187-.046.233-.229.229-.595-.012-1.195-.008-1.79 0-.154.004-.196-.037-.2-.196-.067-2.386-.874-4.484-2.477-6.257a9.04 9.04 0 0 0-5.079-2.877c-.512-.1-1.028-.167-1.549-.162-.137 0-.179-.042-.175-.175l-.004-.962zm6.465 10.621c-.304 0-.612-.008-.916.004-.15.004-.179-.05-.187-.187-.079-1.765-.812-3.202-2.223-4.272A5.05 5.05 0 0 0 .217 6.258C.046 6.249 0 6.203 0 6.033V4.201c-.004-.162.042-.212.208-.204a7.41 7.41 0 0 1 4.779 1.915c.999.887 1.715 1.969 2.161 3.226a7.74 7.74 0 0 1 .441 2.423c.004.142-.033.196-.183.187l-.933-.004zm-6.47-1.578c0-.874.67-1.549 1.532-1.545.853.004 1.524.691 1.524 1.561 0 .858-.695 1.561-1.536 1.553-.853-.004-1.52-.699-1.52-1.57z"/></svg>