<svg xmlns="http://www.w3.org/2000/svg" xmlns:xlink="http://www.w3.org/1999/xlink" width="207.882" height="23.936" viewBox="0 0 55.002 6.333" xmlns:v="https://vecta.io/nano"><path d="M4.894.288H3.821v4.059h-.052L.965.288H0v5.955h1.079V2.187h.049l2.806 4.057h.96zm1.121 5.955h1.053V1.777H6.015zm.529-5.1c.334 0 .608-.256.608-.57S6.879 0 6.544 0s-.611.256-.611.573.273.57.611.57zm3.829.634h-.881V.707H8.439v1.07h-.634v.814h.634v2.483c-.006.84.605 1.253 1.396 1.23.3-.009.506-.067.619-.105l-.177-.823a1.28 1.28 0 0 1-.308.041c-.265 0-.477-.093-.477-.518V2.591h.881z"/><use xlink:href="#B"/><path d="M16.379 6.243h1.053V1.777h-1.053zm.529-5.1c.334 0 .608-.256.608-.57S17.243 0 16.908 0s-.611.256-.611.573.273.57.611.57zm2.651 2.483c0-.646.39-1.018.945-1.018.544 0 .869.358.869.954v2.681h1.053V3.399c.003-1.07-.608-1.681-1.53-1.681-.669 0-1.128.32-1.332.817h-.052v-.759h-1.006v4.467h1.053zm6.015 2.617h1.079V4.469l.66-.779 1.777 2.553h1.297L28.063 2.96 30.366.288h-1.317l-2.323 2.736h-.073V.288h-1.079z"/><use xlink:href="#C"/><path d="M35.779 6.243h1.053V3.527c0-.55.366-.922.82-.922a.71.71 0 0 1 .75.759v2.879h1.032V3.457c0-.503.3-.852.808-.852.425 0 .762.25.762.803v2.835h1.056V3.245c0-.997-.576-1.527-1.396-1.527-.648 0-1.143.32-1.341.817h-.047c-.172-.506-.605-.817-1.207-.817s-1.047.308-1.233.817h-.052v-.759h-1.006z"/><use xlink:href="#C" x="12.059"/><path d="M50.069 1.777h-.881V.707h-1.053v1.07h-.634v.814h.634v2.483c-.006.84.605 1.253 1.396 1.23.3-.009.506-.067.619-.105l-.177-.823c-.058.015-.177.041-.308.041-.265 0-.477-.093-.477-.518V2.591h.881z"/><use xlink:href="#B" x="39.696"/><defs ><path id="B" d="M12.41 3.626c0-.646.401-1.018.965-1.018.553 0 .878.352.878.954v2.681h1.053V3.399c0-1.079-.611-1.681-1.538-1.681-.686 0-1.122.311-1.329.817h-.052V.288h-1.029v5.955h1.053z"/><path id="C" d="M32.362 6.333c.701 0 1.12-.329 1.311-.704h.035v.614h1.012V3.254c0-1.181-.963-1.535-1.815-1.535-.939 0-1.66.419-1.893 1.233l.983.14c.105-.305.401-.567.916-.567.489 0 .756.25.756.689v.017c0 .302-.317.317-1.105.401-.867.093-1.695.352-1.695 1.358 0 .878.643 1.343 1.495 1.343zm.273-.774c-.439 0-.753-.201-.753-.587 0-.404.352-.573.823-.64.276-.038.829-.108.965-.218v.526c0 .497-.401.919-1.035.919z"/></defs></svg>